# xmcd
#
# Track frame offsets:
#	150
#	13904
#	32220
#	51533
#	72979
#	92652
#	107760
#	125946
#	146042
#	162043
#	179154
#	199483
#	215990
#	231555
#	245737
#	265126
#	286029
#	315884
#
# Disc length: 4415 seconds
#
# Revision: 0
# Processed by: cddbd v1.5.2PL0 Copyright (c) Steve Scherf et al.
# Submitted via: EasyCDDAExtractor 11.5.3.1
#
DISCID=26113d12
DTITLE=Gaye Adegbalola - Gaye Without Shame
DYEAR=2008
DGENRE=Blues
TTITLE0=Queer Blues
TTITLE1=Honest I Do
TTITLE2=Hungry Woman's Blues
TTITLE3=The Great Pretender
TTITLE4=Meet Me With Your Black Drawers On
TTITLE5=Boy In The Boat
TTITLE6=Bareback Rider
TTITLE7=Hold My Hand, Baby
TTITLE8=It Hurts Me, Too
TTITLE9=Lying Preacher Blues
TTITLE10=Twisted Mind Blues
TTITLE11=Tippin' On The Down Low
TTITLE12=Hetero Twinges
TTITLE13=Step Parent Blues
TTITLE14=Let It Be Me
TTITLE15=Deja Vu Blues
TTITLE16=Speech
TTITLE17=I Ain't Ashamed
EXTD=
EXTT0=
EXTT1=
EXTT2=
EXTT3=
EXTT4=
EXTT5=
EXTT6=
EXTT7=
EXTT8=
EXTT9=
EXTT10=
EXTT11=
EXTT12=
EXTT13=
EXTT14=
EXTT15=
EXTT16=
EXTT17=
PLAYORDER=
